<svg xmlns="http://www.w3.org/2000/svg" width="720" height="720" viewBox="0 0 720 720" aria-hidden="true">
<circle cx="360" cy="360" r="352" fill="#252421" stroke="#85827C" stroke-width="2"/>
<g fill="none" stroke="#66645F" stroke-width="1"><circle cx="360" cy="360" r="335"/><circle cx="360" cy="360" r="328"/><circle cx="360" cy="360" r="321"/><circle cx="360" cy="360" r="314"/><circle cx="360" cy="360" r="307"/><circle cx="360" cy="360" r="300"/><circle cx="360" cy="360" r="293"/><circle cx="360" cy="360" r="286"/><circle cx="360" cy="360" r="279"/><circle cx="360" cy="360" r="272"/><circle cx="360" cy="360" r="265"/><circle cx="360" cy="360" r="258"/><circle cx="360" cy="360" r="251"/><circle cx="360" cy="360" r="244"/><circle cx="360" cy="360" r="237"/><circle cx="360" cy="360" r="230"/><circle cx="360" cy="360" r="223"/><circle cx="360" cy="360" r="216"/><circle cx="360" cy="360" r="209"/><circle cx="360" cy="360" r="202"/><circle cx="360" cy="360" r="195"/><circle cx="360" cy="360" r="188"/><circle cx="360" cy="360" r="181"/><circle cx="360" cy="360" r="174"/></g>
<circle cx="360" cy="360" r="147" fill="#F5F4F0"/><circle cx="360" cy="360" r="137" fill="none" stroke="#85827C"/><circle cx="360" cy="360" r="7" fill="#252421"/>
</svg>
